TITLE ""
FILE "2Q_j_1501-1513.mp3" MP3
  TRACK 01 AUDIO
    TITLE "2Q_j_1501-1513_01"
    INDEX 01 00:00:00
  TRACK 02 AUDIO
    TITLE "2Q_j_1501-1513_02"
    INDEX 01 00:00:08
  TRACK 03 AUDIO
    TITLE "2Q_j_1501-1513_03"
    INDEX 01 00:03:36
  TRACK 04 AUDIO
    TITLE "2Q_j_1501-1513_04"
    INDEX 01 00:04:08
  TRACK 05 AUDIO
    TITLE "2Q_j_1501-1513_05"
    INDEX 01 00:05:58
  TRACK 06 AUDIO
    TITLE "2Q_j_1501-1513_06"
    INDEX 01 00:06:32
  TRACK 07 AUDIO
    TITLE "2Q_j_1501-1513_07"
    INDEX 01 00:07:55
  TRACK 08 AUDIO
    TITLE "2Q_j_1501-1513_08"
    INDEX 01 00:08:25
  TRACK 09 AUDIO
    TITLE "2Q_j_1501-1513_09"
    INDEX 01 00:10:52
  TRACK 10 AUDIO
    TITLE "2Q_j_1501-1513_10"
    INDEX 01 00:11:20
  TRACK 11 AUDIO
    TITLE "2Q_j_1501-1513_11"
    INDEX 01 00:17:22
  TRACK 12 AUDIO
    TITLE "2Q_j_1501-1513_12"
    INDEX 01 00:17:70
  TRACK 13 AUDIO
    TITLE "2Q_j_1501-1513_13"
    INDEX 01 00:19:33
  TRACK 14 AUDIO
    TITLE "2Q_j_1501-1513_14"
    INDEX 01 00:20:07
  TRACK 15 AUDIO
    TITLE "2Q_j_1501-1513_15"
    INDEX 01 00:22:00
  TRACK 16 AUDIO
    TITLE "2Q_j_1501-1513_16"
    INDEX 01 00:22:45
  TRACK 17 AUDIO
    TITLE "2Q_j_1501-1513_17"
    INDEX 01 00:24:60
  TRACK 18 AUDIO
    TITLE "2Q_j_1501-1513_18"
    INDEX 01 00:25:38
  TRACK 19 AUDIO
    TITLE "2Q_j_1501-1513_19"
    INDEX 01 00:26:57
  TRACK 20 AUDIO
    TITLE "2Q_j_1501-1513_20"
    INDEX 01 00:27:27
  TRACK 21 AUDIO
    TITLE "2Q_j_1501-1513_21"
    INDEX 01 00:31:23
  TRACK 22 AUDIO
    TITLE "2Q_j_1501-1513_22"
    INDEX 01 00:31:68
  TRACK 23 AUDIO
    TITLE "2Q_j_1501-1513_23"
    INDEX 01 00:34:62
  TRACK 24 AUDIO
    TITLE "2Q_j_1501-1513_24"
    INDEX 01 00:35:38
  TRACK 25 AUDIO
    TITLE "2Q_j_1501-1513_25"
    INDEX 01 00:37:33
  TRACK 26 AUDIO
    TITLE "2Q_j_1501-1513_26"
    INDEX 01 00:38:05
  TRACK 27 AUDIO
    TITLE "2Q_j_1501-1513_27"
    INDEX 01 00:39:73
  TRACK 28 AUDIO
    TITLE "2Q_j_1501-1513_28"
    INDEX 01 00:40:45
  TRACK 29 AUDIO
    TITLE "2Q_j_1501-1513_29"
    INDEX 01 00:45:17
  TRACK 30 AUDIO
    TITLE "2Q_j_1501-1513_30"
    INDEX 01 00:45:72
  TRACK 31 AUDIO
    TITLE "2Q_j_1501-1513_31"
    INDEX 01 00:47:55
  TRACK 32 AUDIO
    TITLE "2Q_j_1501-1513_32"
    INDEX 01 00:48:25
  TRACK 33 AUDIO
    TITLE "2Q_j_1501-1513_33"
    INDEX 01 00:50:40
  TRACK 34 AUDIO
    TITLE "2Q_j_1501-1513_34"
    INDEX 01 00:51:10
  TRACK 35 AUDIO
    TITLE "2Q_j_1501-1513_35"
    INDEX 01 00:54:37
  TRACK 36 AUDIO
    TITLE "2Q_j_1501-1513_36"
    INDEX 01 00:55:09
  TRACK 37 AUDIO
    TITLE "2Q_j_1501-1513_37"
    INDEX 01 00:56:56
  TRACK 38 AUDIO
    TITLE "2Q_j_1501-1513_38"
    INDEX 01 00:57:26
  TRACK 39 AUDIO
    TITLE "2Q_j_1501-1513_39"
    INDEX 01 01:00:24
  TRACK 40 AUDIO
    TITLE "2Q_j_1501-1513_40"
    INDEX 01 01:00:69
  TRACK 41 AUDIO
    TITLE "2Q_j_1501-1513_41"
    INDEX 01 01:04:61
  TRACK 42 AUDIO
    TITLE "2Q_j_1501-1513_42"
    INDEX 01 01:05:33
  TRACK 43 AUDIO
    TITLE "2Q_j_1501-1513_43"
    INDEX 01 01:07:50
  TRACK 44 AUDIO
    TITLE "2Q_j_1501-1513_44"
    INDEX 01 01:08:20
  TRACK 45 AUDIO
    TITLE "2Q_j_1501-1513_45"
    INDEX 01 01:10:17
  TRACK 46 AUDIO
    TITLE "2Q_j_1501-1513_46"
    INDEX 01 01:10:62
  TRACK 47 AUDIO
    TITLE "2Q_j_1501-1513_47"
    INDEX 01 01:13:21
  TRACK 48 AUDIO
    TITLE "2Q_j_1501-1513_48"
    INDEX 01 01:13:66
  TRACK 49 AUDIO
    TITLE "2Q_j_1501-1513_49"
    INDEX 01 01:15:41
  TRACK 50 AUDIO
    TITLE "2Q_j_1501-1513_50"
    INDEX 01 01:16:12
  TRACK 51 AUDIO
    TITLE "2Q_j_1501-1513_51"
    INDEX 01 01:20:05
  TRACK 52 AUDIO
    TITLE "2Q_j_1501-1513_52"
    INDEX 01 01:20:49
  TRACK 53 AUDIO
    TITLE "2Q_j_1501-1513_53"
    INDEX 01 01:24:19
  TRACK 54 AUDIO
    TITLE "2Q_j_1501-1513_54"
    INDEX 01 01:24:66
  TRACK 55 AUDIO
    TITLE "2Q_j_1501-1513_55"
    INDEX 01 01:26:37
  TRACK 56 AUDIO
    TITLE "2Q_j_1501-1513_56"
    INDEX 01 01:27:07
  TRACK 57 AUDIO
    TITLE "2Q_j_1501-1513_57"
    INDEX 01 01:29:40
  TRACK 58 AUDIO
    TITLE "2Q_j_1501-1513_58"
    INDEX 01 01:30:10
  TRACK 59 AUDIO
    TITLE "2Q_j_1501-1513_59"
    INDEX 01 01:33:06
  TRACK 60 AUDIO
    TITLE "2Q_j_1501-1513_60"
    INDEX 01 01:33:61
  TRACK 61 AUDIO
    TITLE "2Q_j_1501-1513_61"
    INDEX 01 01:35:25
  TRACK 62 AUDIO
    TITLE "2Q_j_1501-1513_62"
    INDEX 01 01:35:70
  TRACK 63 AUDIO
    TITLE "2Q_j_1501-1513_63"
    INDEX 01 01:37:67
  TRACK 64 AUDIO
    TITLE "2Q_j_1501-1513_64"
    INDEX 01 01:38:35
  TRACK 65 AUDIO
    TITLE "2Q_j_1501-1513_65"
    INDEX 01 01:42:21
  TRACK 66 AUDIO
    TITLE "2Q_j_1501-1513_66"
    INDEX 01 01:42:70
  TRACK 67 AUDIO
    TITLE "2Q_j_1501-1513_67"
    INDEX 01 01:44:29
  TRACK 68 AUDIO
    TITLE "2Q_j_1501-1513_68"
    INDEX 01 01:45:07
  TRACK 69 AUDIO
    TITLE "2Q_j_1501-1513_69"
    INDEX 01 01:46:42
  TRACK 70 AUDIO
    TITLE "2Q_j_1501-1513_70"
    INDEX 01 01:47:12
  TRACK 71 AUDIO
    TITLE "2Q_j_1501-1513_71"
    INDEX 01 01:51:67
  TRACK 72 AUDIO
    TITLE "2Q_j_1501-1513_72"
    INDEX 01 01:52:37
  TRACK 73 AUDIO
    TITLE "2Q_j_1501-1513_73"
    INDEX 01 01:54:06
  TRACK 74 AUDIO
    TITLE "2Q_j_1501-1513_74"
    INDEX 01 01:54:53
  TRACK 75 AUDIO
    TITLE "2Q_j_1501-1513_75"
    INDEX 01 01:58:37
  TRACK 76 AUDIO
    TITLE "2Q_j_1501-1513_76"
    INDEX 01 01:59:07
  TRACK 77 AUDIO
    TITLE "2Q_j_1501-1513_77"
    INDEX 01 02:02:74
  TRACK 78 AUDIO
    TITLE "2Q_j_1501-1513_78"
    INDEX 01 02:03:46
  TRACK 79 AUDIO
    TITLE "2Q_j_1501-1513_79"
    INDEX 01 02:05:41
  TRACK 80 AUDIO
    TITLE "2Q_j_1501-1513_80"
    INDEX 01 02:06:11
  TRACK 81 AUDIO
    TITLE "2Q_j_1501-1513_81"
    INDEX 01 02:08:53
  TRACK 82 AUDIO
    TITLE "2Q_j_1501-1513_82"
    INDEX 01 02:09:23
  TRACK 83 AUDIO
    TITLE "2Q_j_1501-1513_83"
    INDEX 01 02:12:45
